<?xml version="1.0" ?><!DOCTYPE svg  PUBLIC '-//W3C//DTD SVG 1.1//EN'  'http://www.w3.org/Graphics/SVG/1.1/DTD/svg11.dtd'><svg enable-background="new 0 0 256 256" height="256px" id="Layer_1" version="1.1" viewBox="0 0 256 256" width="256px" xml:space="preserve" xmlns="http://www.w3.org/2000/svg" xmlns:xlink="http://www.w3.org/1999/xlink"><g><g><path clip-rule="evenodd" d="M115.291,75.237c0,8.611,3.512,12.918,10.535,12.918     c8.855,0,11.297-7.549,11.873-16.514l0.814-13.524C125.386,55.361,115.291,60.448,115.291,75.237L115.291,75.237z M178,67.586     c0,14.442-6.667,31.772-22.722,31.772c-5.651,0-10.833-2.806-13.043-7.901h-0.983c-4.41,5.268-10.013,7.901-16.827,7.901     c-14.854,0-23.349-9.599-23.349-24.353c0-17.553,12.246-28.699,29.642-28.699c5.244,0,12.35,0.868,18.067,2.274     c2.344,0.576,3.913,2.679,3.801,5.089l-1.217,25.977c0,5.664,1.547,8.508,4.641,8.508c7.169,0,8.591-13.949,8.591-20.694     c0-19.815-12.859-32.901-32.65-32.901c-25.525,0-40.363,16.748-40.363,41.869c0,30.786,22.469,38.517,49.478,33.508     c3.002-0.558,5.984-1.262,8.937-2.113c3.213-0.926,6.385,1.46,6.385,4.805v1.452c0,2.144-1.278,3.968-3.293,4.7     c-7.863,2.855-16.465,4.283-25.804,4.283C97.31,123.063,78,106.958,78,76.784c0-31.368,21.818-53.805,53.825-53.805     C158.888,22.979,178,40.108,178,67.586L178,67.586z" fill="#2B79C2" fill-rule="evenodd"/><path clip-rule="evenodd" d="M19,67h49.683C68.225,70,68,73.413,68,76.661     C68,77.442,68.013,78,68.04,79H19.009l-0.005,0.015C19.002,79.016,19,79.019,19,79.017v0.002l0.001,0.002l0,0l-0.001,0v5.499     c0,6.664,3.759,9.39,9.77,13.749c33.114,24.065,66.151,48.249,99.23,72.366l101.68-74.162c4.612-3.363,7.32-6.248,7.32-11.953V79     h-51.412c1.246-4,1.99-8,2.276-12H237c6.611,0,12,5.409,12,12.02v142.001c0,6.611-5.389,11.979-12,11.979H19     c-6.598,0-12-5.393-12-11.979V79.02C7,72.417,12.405,67,19,67L19,67z M237,212.049V105.971     c-24.603,18.256-49.619,36.154-74.385,54.208L237,212.049L237,212.049z M27.028,221h201.943l-76.57-53.382l-20.791,15.161     c-2.045,1.553-4.943,1.661-7.126,0.071l-20.886-15.233L27.028,221L27.028,221z M19,105.971v106.078l74.385-51.869     C68.612,142.123,43.607,124.233,19,105.971L19,105.971z" fill="#3B4652" fill-rule="evenodd"/></g></g></svg>